<?xml version="1.0" standalone="no"?>
<!DOCTYPE svg PUBLIC "-//W3C//DTD SVG 20010904//EN"
 "http://www.w3.org/TR/2001/REC-SVG-20010904/DTD/svg10.dtd">
<svg version="1.0" xmlns="http://www.w3.org/2000/svg"
 width="321.000000pt" height="316.000000pt" viewBox="0 0 321.000000 316.000000"
 preserveAspectRatio="xMidYMid meet">
<metadata>
Created by potrace 1.15, written by Peter Selinger 2001-2017
</metadata>
<g transform="translate(0.000000,316.000000) scale(0.100000,-0.100000)"
fill="#000000" stroke="none">
<path d="M0 1675 l0 -1485 130 0 130 0 0 615 0 615 615 0 615 0 0 130 0 130
-615 0 -615 0 0 610 0 610 1475 0 1475 0 0 130 0 130 -1605 0 -1605 0 0 -1485z"/>
<path d="M490 2285 l0 -375 1360 0 1360 0 0 130 0 130 -1230 0 -1230 0 0 120
0 120 1230 0 1230 0 0 125 0 125 -1360 0 -1360 0 0 -375z"/>
<path d="M1720 1430 l0 -250 -615 0 -615 0 0 -125 0 -125 1360 0 1360 0 0 125
0 125 -615 0 -615 0 0 120 0 120 615 0 615 0 0 130 0 130 -745 0 -745 0 0
-250z"/>
<path d="M490 560 l0 -130 615 0 615 0 0 -120 0 -120 130 0 130 0 0 120 0 120
615 0 615 0 0 130 0 130 -1360 0 -1360 0 0 -130z"/>
</g>
</svg>
